PathFileType	4	(X/Y/Z)	/Users/niels/Desktop/University/Third Semester/Perception and Action/Exam/Gymnastics Motion Tracking/Code for Gym Tracking/Analyzed Data/Webcam_Backflip/id2007_1_pure_Sports2D/id2007_1_pure_Sports2D_px_person00.trc
DataRate	CameraRate	NumFrames	NumMarkers	Units	OrigDataRate	OrigDataStartFrame	OrigNumFrames
29.795918367346935	29.795918367346935	12	22	m	29.795918367346935	110	147
Frame#	Time	Hip			RHip			RKnee			RAnkle			RBigToe			RSmallToe			RHeel			LHip			LKnee			LAnkle			LBigToe			LSmallToe			LHeel			Neck			Head			Nose			RShoulder			RElbow			RWrist			LShoulder			LElbow			LWrist		
		X1	Y1	Z1	X2	Y2	Z2	X3	Y3	Z3	X4	Y4	Z4	X5	Y5	Z5	X6	Y6	Z6	X7	Y7	Z7	X8	Y8	Z8	X9	Y9	Z9	X10	Y10	Z10	X11	Y11	Z11	X12	Y12	Z12	X13	Y13	Z13	X14	Y14	Z14	X15	Y15	Z15	X16	Y16	Z16	X17	Y17	Z17	X18	Y18	Z18	X19	Y19	Z19	X20	Y20	Z20	X21	Y21	Z21	X22	Y22	Z22
110	3.691780821917808	0.9287620168937627	-0.7526169486641909	0.0	0.8843523046690562	-0.748445096623112	0.0	0.8904398939479587	-1.0565972200423115	0.0			0.0			0.0			0.0			0.0	0.9835626846595193	-0.7690520733178337	0.0	0.9733954806575835	-1.0605559797185258	0.0	1.1223947709410897	-1.077900879577896	0.0			0.0			0.0			0.0	1.0125848630856429	-0.26347214636281874	0.0	1.0703009348397523	-0.07024856204482284	0.0	1.0728306177942493	-0.17378308143358226	0.0	0.9237526822546694	-0.3221249792090629	0.0	0.927844402245319	-0.5746705498117547	0.0	0.9907581307057834	-0.8136117865365745	0.0	1.0570653178793403	-0.3655895486716434	0.0	1.0912854170622739	-0.587978627958687	0.0	1.0992671825376834	-0.7796926024062779	0.0
111	3.7253424657534246	0.9202499825757954	-0.74916555419704	0.0	0.8762871237516214	-0.745421237272085	0.0	0.8841548427790905	-1.0561191672327133	0.0			0.0			0.0			0.0			0.0	0.9744202384887531	-0.7671071416527188	0.0	0.965190543804615	-1.0593329566627163	0.0	1.1223947690830958	-1.077900879796595	0.0			0.0			0.0			0.0	1.0208741763384774	-0.26586351525263247	0.0	1.0845815433028987	-0.07423892579872039	0.0	1.0844452624854488	-0.17800214538362624	0.0	0.9299911708328373	-0.32304491035042143	0.0	0.9302410279181176	-0.5771687740041598	0.0	0.989937950004354	-0.816713683862963	0.0	1.0633110251908788	-0.36817803278067945	0.0	1.0911279125922855	-0.5898063607138081	0.0	1.0979259359190532	-0.7822721409383012	0.0
112	3.758904109589041	0.91095254795314	-0.7457748252282658	0.0	0.8678433764306658	-0.7429458204218409	0.0	0.8776282664071071	-1.0560516336120098	0.0			0.0			0.0			0.0			0.0	0.963510245739051	-0.7659232320540283	0.0	0.9563665093971158	-1.0580480819592386	0.0	1.1223947687049731	-1.0779008797444276	0.0			0.0			0.0			0.0	1.0303279062462634	-0.26979720149371456	0.0	1.100936609535465	-0.08006012888971664	0.0	1.0974050616479492	-0.18373719905769978	0.0	0.9373785097854481	-0.3246449592709366	0.0	0.9325107567655577	-0.5804889404460236	0.0	0.989247168908007	-0.8208342192208632	0.0	1.0707747777438281	-0.3724073781896142	0.0	1.0905045254037042	-0.5922744272829761	0.0	1.0968330905701682	-0.7857494125724251	0.0
113	3.7924657534246577	0.901426037222136	-0.7427070001010948	0.0	0.8591940146184261	-0.7411676383866187	0.0	0.8702586635806432	-1.0562107935825908	0.0			0.0			0.0			0.0			0.0	0.9516885126422434	-0.765721484069367	0.0	0.9479038265163252	-1.056570188207663	0.0	1.1223947721589502	-1.0779008790701927	0.0			0.0			0.0			0.0	1.040824205012478	-0.27554335031799787	0.0	1.1190706626805484	-0.08788174060460244	0.0	1.1114668800892031	-0.19135804297794692	0.0	0.9458474126400163	-0.3273724037381435	0.0	0.9345724041756154	-0.5848067621177773	0.0	0.9886135805511536	-0.8262993193316811	0.0	1.0792934773239082	-0.378745575307092	0.0	1.0896688160424572	-0.5956769267226392	0.0	1.0958566865914512	-0.7903680096287105	0.0
114	3.8260273972602743	0.8923567675115522	-0.7401865250167567	0.0	0.8503913508760644	-0.7400311942916852	0.0	0.8617556589258415	-1.0563137171809494	0.0			0.0			0.0			0.0			0.0	0.9405396245305154	-0.7662951465565927	0.0	0.9405886348820494	-1.0549288537089954	0.0	1.1223947826384422	-1.07790087732972	0.0			0.0			0.0			0.0	1.0521488444564049	-0.2831884897715668	0.0	1.1385047497494079	-0.09768433803292648	0.0	1.126368651808178	-0.20112199448658147	0.0	0.9552035144036354	-0.33154201007754314	0.0	0.9364410071945365	-0.5901569640653239	0.0	0.9878685839206818	-0.8333594426996124	0.0	1.0885235808923015	-0.38724484221101285	0.0	1.089064457556727	-0.60039538570398	0.0	1.0947439887445303	-0.7963175450394904	0.0
115	3.8595890410958904	0.8841920855023996	-0.7383965349702258	0.0	0.8414485528446758	-0.7394437522528351	0.0	0.8525720309487981	-1.0561722623570917	0.0			0.0			0.0			0.0			0.0	0.9315837170823824	-0.7672251232224921	0.0	0.9347306702903704	-1.0533102851386251	0.0	1.1223948032872912	-1.0779008741439486	0.0			0.0			0.0			0.0	1.0639234628160974	-0.2925319811712146	0.0	1.1585812150886436	-0.1092734077850225	0.0	1.1418168247711133	-0.21301839601368142	0.0	0.9651015308955563	-0.33713773630293664	0.0	0.9381397921636454	-0.5963899455056256	0.0	0.9868309648288767	-0.8420201844963754	0.0	1.0979392927627627	-0.397413885556158	0.0	1.0891527108842733	-0.6066697749676098	0.0	1.0931209852056771	-0.803636022823575	0.0
116	3.893150684931507	0.8770811658382461	-0.7375412789901835	0.0	0.8325038568242472	-0.7394612530306163	0.0	0.8436539029401977	-1.0558283926722318	0.0			0.0			0.0			0.0			0.0	0.9255663820112391	-0.7683462088415262	0.0	0.9303720942302532	-1.051953302005178	0.0	1.1223948350743291	-1.0779008695393106	0.0			0.0			0.0			0.0	1.0755884630174488	-0.30310666974713335	0.0	1.1784920073787233	-0.12228875621717156	0.0	1.1573476549507054	-0.22660336756240154	0.0	0.974989058500574	-0.3439083668061128	0.0	0.939660983232915	-0.6032753732977433	0.0	0.9853649716242223	-0.8519867130985064	0.0	1.1069717921179416	-0.4084640874743223	0.0	1.0902241246349855	-0.6143409268232378	0.0	1.0905791309626172	-0.8121471472860959	0.0
117	3.9267123287671235	0.8710194533012259	-0.7377248548307386	0.0	0.8239205072664294	-0.7401662402581226	0.0	0.8358658886209005	-1.0554955390047052	0.0			0.0			0.0			0.0			0.0	0.9222645760276408	-0.76978607391975	0.0	0.9274323022498756	-1.0510248027719746	0.0	1.1223948730662254	-1.0779008645072563	0.0			0.0			0.0			0.0	1.0865716829754817	-0.31428023209559125	0.0	1.1973800360158404	-0.13618507037562158	0.0	1.1722749141389412	-0.2410398704927374	0.0	0.9842044126310746	-0.3514675281005358	0.0	0.9409722400937726	-0.6105282126827379	0.0	0.9833428986579993	-0.8627577923360786	0.0	1.1151677862104628	-0.4196004892964212	0.0	1.092347160656579	-0.622842319833364	0.0	1.0868389975240949	-0.8214481608351769	0.0
118	3.9602739726027396	0.8659486077187246	-0.7387992839816123	0.0	0.8161869243578653	-0.7414176006187588	0.0	0.8296730649235187	-1.0553736699440277	0.0			0.0			0.0			0.0			0.0	0.9208631312092828	-0.771620275979516	0.0	0.9256871712040157	-1.0505682673981245	0.0	1.1223949012564234	-1.0779008617289194	0.0			0.0			0.0			0.0	1.096442742940384	-0.32533856995102617	0.0	1.2145529994140833	-0.150234034388568	0.0	1.185915751192749	-0.2553513101417999	0.0	0.9922268642731097	-0.3593085360350384	0.0	0.9420689473414228	-0.6177674272401844	0.0	0.9805919598235413	-0.8736539024230174	0.0	1.1222155080945893	-0.43013345130980035	0.0	1.0952359033133203	-0.6314980006345939	0.0	1.0819127625202583	-0.8308804679108095	0.0
119	3.993835616438356	0.8618413170259979	-0.7404294537522716	0.0	0.8098035507450452	-0.7428728151282623	0.0	0.8251719322452162	-1.0555364075811375	0.0			0.0			0.0			0.0			0.0	0.9204582338856558	-0.7737079747391782	0.0	0.9247803962687529	-1.0505475668302677	0.0	1.1223948872762215	-1.0779008662261633	0.0			0.0			0.0			0.0	1.1049084985554272	-0.3355197597829599	0.0	1.2295967908071979	-0.163537880816461	0.0	1.1978401622522503	-0.268629119247942	0.0	0.9988842917703856	-0.3668937467255827	0.0	0.9430298885966244	-0.6245421908330272	0.0	0.9769793662767128	-0.883855465894843	0.0	1.1278799210564783	-0.4395024068229712	0.0	1.0981802861390253	-0.6398032764520029	0.0	1.0761605367952616	-0.839664119241155	0.0
120	4.027397260273973	0.8587769775670097	-0.7422316194770858	0.0	0.8052278967253045	-0.7442004595064233	0.0	0.8221587288493621	-1.055944769260469	0.0			0.0			0.0			0.0			0.0	0.9203002786311507	-0.7757740667320377	0.0	0.9242758364277794	-1.0508849220464198	0.0	1.1223947802773717	-1.0779008854087415	0.0			0.0			0.0			0.0	1.1117665936603223	-0.3440997361534833	0.0	1.242236823288166	-0.17509109669518355	0.0	1.2078378470197877	-0.2800446847175379	0.0	1.00432551678952	-0.37371895795690374	0.0	0.9439956547334973	-0.6303760903535319	0.0	0.9726961605581457	-0.8926023538070891	0.0	1.1320317332421301	-0.44723984160458446	0.0	1.1004583900314737	-0.6473890339536744	0.0	1.0701758919020843	-0.8472233781245835	0.0
121	4.060958904109589	0.856942839814359	-0.7438010064682741	0.0	0.802764793187537	-0.7451301528800204	0.0	0.8202781886316388	-1.0564672881847388	0.0			0.0			0.0			0.0			0.0	0.9200282914800084	-0.7774364721992709	0.0	0.9238101939177819	-1.051445227823857	0.0	1.1223945178815922	-1.0779009276277371	0.0			0.0			0.0			0.0	1.1168869886781008	-0.35053083976707283	0.0	1.2521362299685543	-0.1839531110670046	0.0	1.2157321657804607	-0.28877165409328054	0.0	1.0087194301142792	-0.37927251605328205	0.0	0.9451483095526508	-0.634842980407837	0.0	0.9686020731065443	-0.899350508645506	0.0	1.1347886218707448	-0.45290993708025007	0.0	1.1018848089273323	-0.6538129769818498	0.0	1.0647009078992478	-0.8532981183261197	0.0
